# xmcd
#
# Track frame offsets:
#	150
#	14030
#	25047
#	36150
#	47875
#	60497
#	73225
#	86780
#	100767
#	116395
#	126425
#	139667
#	154040
#	168152
#	183137
#	197257
#	210390
#	221740
#	235237
#	249847
#	262315
#	274667
#	288525
#	300017
#	312210
#
# Disc length: 4327
#
# Revision: 1
# Processed by: cddbd v1.5.1PL0 Copyright (c) Steve Scherf et al.
# Submitted via: ExactAudioCopy v0.90b4
# Normalized: r0:DSETVAR1
#
DISCID=5e10e519
DTITLE=Various Artist - The Singing Cowboys In The Movies
DYEAR=2001
DGENRE=Country
TTITLE0=Gene Autry - Cowboy's Heaven
TTITLE1=Gene Autry - Dust
TTITLE2=Roy Rogers - A Gay Ranchero
TTITLE3=Roy Rogers - I'm A Rollin'
TTITLE4=Sons Of The Pioneers - Song Of The Bandit
TTITLE5=Ray Whitley - Come On Boys, We're Ridin' Into Town
TTITLE6=Jimmy Wakley - Song Of The Sierras
TTITLE7=Bill Boyd - Goin' Back To My Texas Home
TTITLE8=Ken Maynard - Cowboy's Lament
TTITLE9=Tex Williams - That's What I Like About The West
TTITLE10=Bob Wills - Dusty Skies
TTITLE11=Merle Travis - Ridin' Down To Santa Fe
TTITLE12=Eddie Dean - Sleepy Time In Caroline
TTITLE13=Frankie Marvin - There's Gold In Them Thar Hills
TTITLE14=Spade Cooley - Hillbilly Fever
TTITLE15=Gene Autry and Smiley Burnette - Ridin' Down The Canyon
TTITLE16=Pee Wee King - Texas Toni Lee
TTITLE17=Johnny Bond - Fat Girl
TTITLE18=John "Dusty" King - Deep In The Heart Of Texas
TTITLE19=Jimmy Davis - On The Sunny Side Of The Rockies
TTITLE20=Wesley Tuttle - Rainin' On The mountain
TTITLE21=Carson Robison - There's A Bridle Hangin' On The Wall
TTITLE22=Rex Allen - Texas Tornado
TTITLE23=Tex Ritter - Sing, Cowboy, Sing
TTITLE24=Tex Ritter - We'll Rest At The End Of The Trail
EXTD=
EXTT0=
EXTT1=
EXTT2=
EXTT3=
EXTT4=
EXTT5=
EXTT6=
EXTT7=
EXTT8=
EXTT9=
EXTT10=
EXTT11=
EXTT12=
EXTT13=
EXTT14=
EXTT15=
EXTT16=
EXTT17=
EXTT18=
EXTT19=
EXTT20=
EXTT21=
EXTT22=
EXTT23=
EXTT24=
PLAYORDER=
